<?xml version="1.0" encoding="UTF-8"?><svg xmlns="http://www.w3.org/2000/svg" xmlns:xlink="http://www.w3.org/1999/xlink" viewBox="0 0 24 24" version="1.1"><title>Codepen icon</title><path d="M12 2L2.004 8.602 2 15.398 11.992 22l9.996-6.602.004-6.796zm0 12l-3-2 3-2 3 2zm1-5.738V5.059l6.234 4.117-2.433 1.62zm-2 0l-3.805 2.535-2.43-1.621L11 5.059zM5.395 12L4 12.93l.004-1.856zm1.8 1.203L11 15.738v3.207l-6.238-4.12zM13 15.738l3.8-2.535 2.43 1.617-6.234 4.117v-3.199zM18.605 12l1.387-.926-.004 1.848z" id="surface1"/><metadata><rdf:RDF xmlns:rdf="http://www.w3.org/1999/02/22-rdf-syntax-ns#" xmlns:rdfs="http://www.w3.org/2000/01/rdf-schema#" xmlns:dc="http://purl.org/dc/elements/1.1/"><rdf:Description about="https://iconscout.com/legal#licenses" dc:title="codepen" dc:description="codepen" dc:publisher="Iconscout" dc:date="2018-06-22" dc:format="image/svg+xml" dc:language="en"><dc:creator><rdf:Bag><rdf:li>Icons8</rdf:li></rdf:Bag></dc:creator></rdf:Description></rdf:RDF></metadata></svg>